<svg viewBox="0 0 96 96" xmlns="http://www.w3.org/2000/svg">
  <path d="M38 84 C43 88 53 88 58 84" fill="none" stroke="var(--ink)" stroke-width="5" stroke-linecap="round"/>
  <path d="M48 84 L48 67" fill="none" stroke="var(--ink)" stroke-width="6" stroke-linecap="round"/>
  <path d="M48 10 C61 27 70 39 67 54 C64 69 52 76 42 73 C32 70 27 60 31 48 C34 39 42 34 41 24 C47 30 51 37 51 45 C57 35 56 22 48 10 Z"
        fill="var(--spirit)" fill-opacity="0.95" stroke="var(--ink)" stroke-width="4" stroke-linejoin="round"/>
  <path d="M49 38 C55 48 55 58 49 65 C44 70 38 66 39 59 C40 52 46 48 49 38 Z"
        fill="var(--paper)" fill-opacity="0.42"/>
</svg>
