<svg viewBox="0 0 768 1024" xmlns="http://www.w3.org/2000/svg">
  <defs>
    <linearGradient id="rollShade" x1="0" y1="0" x2="1" y2="0">
      <stop offset="0" stop-color="var(--ink)" stop-opacity="0.10"/>
      <stop offset="0.10" stop-color="var(--ink)" stop-opacity="0"/>
      <stop offset="0.90" stop-color="var(--ink)" stop-opacity="0"/>
      <stop offset="1" stop-color="var(--ink)" stop-opacity="0.10"/>
    </linearGradient>
    <clipPath id="bodyClip">
      <path d="M68 24 L700 24 Q724 28 730 53 L730 971 Q723 995 700 1000 L68 1000 Q44 995 38 971 L38 53 Q44 29 68 24 Z"/>
    </clipPath>
    <filter id="softNoise">
      <feTurbulence type="fractalNoise" baseFrequency="0.018 0.052" numOctaves="2" seed="17"/>
      <feColorMatrix type="saturate" values="0"/>
      <feComponentTransfer>
        <feFuncA type="table" tableValues="0 0.07"/>
      </feComponentTransfer>
    </filter>
  </defs>
  <path d="M68 24 L700 24 Q724 28 730 53 L730 971 Q723 995 700 1000 L68 1000 Q44 995 38 971 L38 53 Q44 29 68 24 Z"
        fill="var(--paper)" stroke="var(--ink)" stroke-opacity="0.38" stroke-width="5" stroke-linejoin="round"/>
  <path d="M68 24 L700 24 Q724 28 730 53 L730 971 Q723 995 700 1000 L68 1000 Q44 995 38 971 L38 53 Q44 29 68 24 Z"
        fill="url(#rollShade)"/>
  <path d="M82 42 Q58 168 69 311 M70 680 Q57 818 82 979 M686 44 Q710 185 697 336 M696 651 Q711 810 686 980"
        fill="none" stroke="var(--ink)" stroke-opacity="0.13" stroke-width="12" stroke-linecap="round"/>
  <path d="M120 190 Q226 174 332 188 M418 214 Q514 198 628 218 M122 496 Q260 478 386 498 M476 756 Q560 742 642 758"
        fill="none" stroke="var(--ink)" stroke-opacity="0.08" stroke-width="5" stroke-linecap="round"/>
  <g clip-path="url(#bodyClip)">
    <rect x="38" y="24" width="692" height="976" filter="url(#softNoise)" opacity="0.6"/>
  </g>
</svg>
