<svg viewBox="0 0 268 418" xmlns="http://www.w3.org/2000/svg">
  <!-- 2월 열끗: 매조 — 매화 가지 위의 꾀꼬리 -->
  <!-- 가지 -->
  <g stroke="var(--ink)" fill="none" stroke-linecap="round">
    <path d="M 8 340 Q 90 300 150 250 Q 210 200 250 190" stroke-width="14" />
    <path d="M 120 276 Q 140 300 138 340" stroke-width="8" />
    <path d="M 196 214 Q 226 232 232 262" stroke-width="7" />
  </g>
  <!-- 매화 -->
  <g fill="var(--vermilion)">
    <circle cx="130" cy="352" r="16" />
    <circle cx="236" cy="270" r="14" />
    <circle cx="60" cy="330" r="12" />
    <circle cx="252" cy="176" r="11" />
  </g>
  <g fill="var(--paper)">
    <circle cx="130" cy="352" r="5" />
    <circle cx="236" cy="270" r="4" />
    <circle cx="60" cy="330" r="4" />
    <circle cx="252" cy="176" r="3.5" />
  </g>
  <!-- 꾀꼬리 -->
  <g>
    <ellipse cx="120" cy="196" rx="46" ry="34" fill="var(--indigo)" />
    <circle cx="160" cy="168" r="22" fill="var(--indigo)" />
    <path d="M 78 206 Q 44 224 30 254 Q 66 244 88 226 Z" fill="var(--spirit)" />
    <path d="M 108 190 Q 132 178 150 192 Q 132 210 108 206 Z" fill="var(--spirit)" />
    <path d="M 178 162 L 200 158 L 180 172 Z" fill="var(--gold)" />
    <circle cx="164" cy="162" r="3.5" fill="var(--ink)" />
    <g stroke="var(--ink)" stroke-width="3" stroke-linecap="round">
      <path d="M 116 228 V 246" />
      <path d="M 130 228 V 244" />
    </g>
  </g>
</svg>
