<svg viewBox="0 0 268 418" xmlns="http://www.w3.org/2000/svg">
  <!-- 3월 홍단: 벚꽃 가지와 홍단 띠 -->
  <!-- 가지 -->
  <g stroke="var(--ink)" fill="none" stroke-linecap="round">
    <path d="M 250 30 Q 180 90 130 170 Q 90 240 84 320" stroke-width="12" />
    <path d="M 150 140 Q 120 150 100 140" stroke-width="7" />
    <path d="M 110 220 Q 150 228 168 252" stroke-width="7" />
  </g>
  <!-- 벚꽃: 다섯 잎 -->
  <g fill="var(--paper)" stroke="var(--vermilion)" stroke-width="3">
    <g transform="translate(96 132)">
      <circle r="11" transform="translate(0 -14)" />
      <circle r="11" transform="translate(13 -4)" />
      <circle r="11" transform="translate(8 12)" />
      <circle r="11" transform="translate(-8 12)" />
      <circle r="11" transform="translate(-13 -4)" />
    </g>
    <g transform="translate(178 258)">
      <circle r="10" transform="translate(0 -12)" />
      <circle r="10" transform="translate(11 -4)" />
      <circle r="10" transform="translate(7 10)" />
      <circle r="10" transform="translate(-7 10)" />
      <circle r="10" transform="translate(-11 -4)" />
    </g>
  </g>
  <g fill="var(--gold)">
    <circle cx="96" cy="132" r="6" />
    <circle cx="178" cy="258" r="5" />
  </g>
  <!-- 홍단 띠 -->
  <g transform="translate(28 96) rotate(8)">
    <rect x="0" y="0" width="52" height="252" rx="8" fill="var(--vermilion)" />
    <g stroke="var(--paper)" stroke-width="4" fill="none" stroke-linecap="round">
      <path d="M 26 28 V 78" />
      <path d="M 14 104 H 38" />
      <path d="M 26 104 V 150" />
      <path d="M 14 178 Q 26 192 38 178" />
      <path d="M 26 196 V 226" />
    </g>
  </g>
</svg>
